# Blender v2.78 (sub 0) OBJ File: 'tank.blend'
# www.blender.org
mtllib tank.mtl
o Cube
v 1.000000 -0.172973 -0.650562
v 1.000000 -0.172973 0.650562
v -1.000000 -0.172973 0.650562
v -1.000000 -0.172973 -0.650562
v 1.000000 0.172973 -0.650562
v 0.999999 0.172973 0.650563
v -1.000000 0.172973 0.650562
v -1.000000 0.172973 -0.650562
v 0.711102 0.454519 -0.503562
v -0.711000 0.454519 -0.503562
v -0.711000 0.454519 0.503194
v 0.711101 0.454519 0.503195
v 1.000000 -0.172973 -0.650562
v -1.000000 -0.172973 -0.650562
v 1.000000 0.172973 -0.650562
v 1.000000 -0.172973 0.650562
v -1.000000 -0.172973 0.650562
v 0.999999 0.172973 0.650563
v -1.000000 0.172973 0.650562
v -1.000000 0.172973 -0.650562
v 1.000000 -0.172973 1.009125
v 0.999999 0.172973 1.009125
v -1.000000 0.172973 1.009124
v -1.000000 -0.172973 1.009124
v 1.000001 0.172973 -1.009124
v 1.000000 -0.172973 -1.009125
v -1.000000 -0.172973 -1.009125
v -1.000000 0.172973 -1.009125
v 0.890630 -0.240012 0.650562
v 0.890630 -0.240012 1.009125
v -0.891000 -0.240012 1.009124
v -0.891000 -0.240012 0.650562
v -0.891000 -0.240012 -0.650563
v -0.891000 -0.240012 -1.009125
v 0.890630 -0.240012 -1.009125
v 0.890630 -0.240012 -0.650562
v 1.000000 -0.172973 -0.650562
v 1.000000 0.172973 -0.650562
v 1.000000 -0.172973 0.650562
v 0.999999 0.172973 0.650563
v -1.000000 -0.172973 0.650562
v -1.000000 0.172973 0.650562
v -1.000000 -0.172973 -0.650562
v -1.000000 0.172973 -0.650562
v 0.999999 0.172973 1.009125
v -1.000000 0.172973 1.009124
v 1.000001 0.172973 -1.009124
v -1.000000 0.172973 -1.009125
v 1.054202 0.124277 0.650563
v 1.054203 -0.172973 0.650562
v -1.054203 -0.172973 0.650562
v -1.054203 0.124277 0.650562
v 1.054203 -0.172973 -0.650562
v 1.054203 0.124277 -0.650562
v -1.054203 0.124277 -0.650562
v -1.054202 -0.172973 -0.650562
v 1.000001 0.172973 -1.055817
v 1.054203 0.124277 -1.055817
v 1.054203 -0.172973 -1.055817
v -1.054202 -0.172973 -1.055818
v -1.054203 0.124277 -1.055817
v -1.000000 0.172973 -1.055817
v -1.000000 0.172973 -1.055817
v 1.000001 0.172973 -1.055817
v 1.054203 -0.172973 1.055817
v 1.054202 0.124277 1.055818
v 0.999999 0.172973 1.055818
v 0.999999 0.172973 1.055818
v -1.000000 0.172973 1.055817
v -1.000000 0.172973 1.055817
v -1.054203 0.124277 1.055817
v -1.054203 -0.172973 1.055817
vt 0.4602 0.3241
vt 0.5624 0.3241
vt 0.5624 0.4218
vt 0.4602 0.4218
vt 0.3580 0.0488
vt 0.3580 0.1464
vt 0.2557 0.1464
vt 0.2557 0.0488
vt 0.0000 0.0000
vt 0.0000 0.0000
vt 0.0000 0.0000
vt 0.0000 0.0000
vt 0.1534 0.0488
vt 0.1534 0.1464
vt 0.0511 0.1464
vt 0.0511 0.0488
vt 0.0000 0.0000
vt 0.0000 0.0000
vt 0.0000 0.0000
vt 0.0000 0.0000
vt 0.0348 0.9738
vt 0.0348 0.9349
vt 0.1139 0.9349
vt 0.1139 0.9738
vt 0.4602 0.5195
vt 0.5438 0.5336
vt 0.5438 0.6030
vt 0.4602 0.6171
vt 0.1418 0.2265
vt 0.0627 0.2265
vt 0.4603 0.0488
vt 0.5439 0.0629
vt 0.5439 0.1324
vt 0.4603 0.1465
vt 0.3464 0.2265
vt 0.2673 0.2265
vt 0.4797 0.9371
vt 0.4602 0.9371
vt 0.4602 0.9102
vt 0.4797 0.9102
vt 0.8085 0.1358
vt 0.7804 0.1358
vt 0.7804 0.0488
vt 0.8085 0.0488
vt 0.0000 0.0000
vt 0.0000 0.0000
vt 0.0000 0.0000
vt 0.0000 0.0000
vt 0.0000 0.0000
vt 0.0000 0.0000
vt 0.0000 0.0000
vt 0.0000 0.0000
vt 0.6780 0.6033
vt 0.6461 0.6033
vt 0.6461 0.5195
vt 0.6780 0.5195
vt 0.0000 0.0000
vt 0.0000 0.0000
vt 0.6462 0.0488
vt 0.6781 0.0488
vt 0.6781 0.1327
vt 0.6462 0.1327
vt 0.7880 0.8125
vt 0.7682 0.8072
vt 0.7682 0.7202
vt 0.7880 0.7148
vt 0.9293 0.3241
vt 0.9489 0.3241
vt 0.9489 0.3510
vt 0.9293 0.3510
vt 0.6461 0.7148
vt 0.6659 0.7202
vt 0.6659 0.8072
vt 0.6461 0.8125
vt 0.8270 0.4111
vt 0.7989 0.4111
vt 0.7989 0.3241
vt 0.8270 0.3241
vt 0.8903 0.9101
vt 0.9098 0.9101
vt 0.9098 0.9370
vt 0.8903 0.9370
vt 0.4602 0.7148
vt 0.4800 0.7202
vt 0.4800 0.8072
vt 0.4602 0.8125
vt 0.6656 0.9371
vt 0.6461 0.9371
vt 0.6461 0.9102
vt 0.6656 0.9102
vt 0.2557 0.7254
vt 0.2755 0.7307
vt 0.2755 0.8177
vt 0.2557 0.8231
vt 0.0000 0.0000
vt 0.0000 0.0000
vt 0.0000 0.0000
vt 0.0000 0.0000
vt 0.0000 0.0000
vt 0.0000 0.0000
vt 0.0000 0.0000
vt 0.0000 0.0000
vt 0.0000 0.0000
vt 0.0000 0.0000
vt 0.0000 0.0000
vt 0.0000 0.0000
vt 0.0000 0.0000
vt 0.0000 0.0000
vt 0.0000 0.0000
vt 0.0000 0.0000
vt 0.0000 0.0000
vt 0.0000 0.0000
vt 0.6498 0.6172
vt 0.6461 0.6172
vt 0.6780 0.6172
vt 0.8903 0.7148
vt 0.8930 0.7286
vt 0.8930 0.8124
vt 0.8903 0.8124
vt 0.6966 0.3380
vt 0.6647 0.3380
vt 0.6647 0.3241
vt 0.6684 0.3241
vt 0.6966 0.3241
vt 0.7730 0.9371
vt 0.7730 0.9406
vt 0.7682 0.9406
vt 0.7682 0.9371
vt 0.7682 0.9102
vt 0.7730 0.9102
vt 0.0539 0.8262
vt 0.0511 0.8262
vt 0.0511 0.7424
vt 0.0539 0.7287
vt 0.6781 0.1465
vt 0.6744 0.1465
vt 0.6462 0.1465
vt 0.7802 0.5333
vt 0.8121 0.5333
vt 0.8121 0.6172
vt 0.7802 0.6172
vt 0.9172 0.6170
vt 0.9144 0.6170
vt 0.9144 0.5332
vt 0.9172 0.5195
vt 0.8084 0.5195
vt 0.8121 0.5195
vt 0.7802 0.5195
vt 0.6966 0.4218
vt 0.6647 0.4218
vt 0.9136 0.1464
vt 0.9108 0.1327
vt 0.9108 0.0488
vt 0.9136 0.0488
vt 0.2557 0.3268
vt 0.2701 0.3241
vt 0.3579 0.3241
vt 0.3579 0.4271
vt 0.2701 0.4271
vt 0.2557 0.4244
vt 0.2557 0.4244
vt 0.2557 0.3268
vt 0.2605 0.9477
vt 0.2605 0.9512
vt 0.2557 0.9512
vt 0.2557 0.9477
vt 0.2557 0.9207
vt 0.2605 0.9207
vt 0.0830 0.6310
vt 0.0511 0.6310
vt 0.0511 0.5280
vt 0.0830 0.5280
vt 0.0830 0.5307
vt 0.0548 0.5307
vt 0.0548 0.6283
vt 0.0830 0.6283
vt 0.0000 0.0000
vt 0.0000 0.0000
vt 0.0000 0.0000
vt 0.0000 0.0000
vt 0.1533 0.4304
vt 0.0655 0.4304
vt 0.0511 0.4277
vt 0.0511 0.4277
vt 0.0511 0.3300
vt 0.0511 0.3300
vt 0.0655 0.3274
vt 0.1533 0.3274
vt 0.0000 0.0000
vt 0.0000 0.0000
vt 0.0000 0.0000
vt 0.0000 0.0000
vt 0.2876 0.6277
vt 0.2557 0.6277
vt 0.2557 0.6251
vt 0.2839 0.6251
vt 0.2839 0.5274
vt 0.2557 0.5274
vt 0.2557 0.5248
vt 0.2876 0.5248
vn 0.0000 -1.0000 0.0000
vn 1.0000 -0.0000 0.0000
vn 0.0000 0.0000 1.0000
vn -1.0000 -0.0000 -0.0000
vn 0.0000 1.0000 0.0000
vn 0.0000 0.4628 -0.8864
vn -0.6978 0.7163 -0.0000
vn -0.0000 0.4637 0.8860
vn 0.6979 0.7162 0.0000
vn 0.5226 -0.8526 0.0000
vn -0.5239 -0.8518 -0.0000
vn 0.0000 -0.0000 -1.0000
vn 0.6683 0.7439 0.0000
vn -0.6683 0.7439 -0.0000
usemtl Material
s off
f 1/1/1 2/2/1 3/3/1 4/4/1
f 1/5/2 5/6/2 6/7/2 2/8/2
f 1/9/3 4/10/3 14/11/3 13/12/3
f 3/13/4 7/14/4 8/15/4 4/16/4
f 3/17/3 2/18/3 16/19/3 17/20/3
f 9/21/5 10/22/5 11/23/5 12/24/5
f 8/25/6 10/26/6 9/27/6 5/28/6
f 7/14/7 11/29/7 10/30/7 8/15/7
f 6/31/8 12/32/8 11/33/8 7/34/8
f 5/6/9 9/35/9 12/36/9 6/7/9
f 21/37/10 30/38/10 29/39/10 16/40/10
f 29/41/1 30/42/1 31/43/1 32/44/1
f 6/45/3 7/46/3 19/47/3 18/48/3
f 7/46/3 3/17/3 17/20/3 19/47/3
f 2/18/3 6/45/3 18/48/3 16/19/3
f 5/49/3 1/9/3 13/12/3 15/50/3
f 8/51/3 5/49/3 15/50/3 20/52/3
f 4/10/3 8/51/3 20/52/3 14/11/3
f 49/53/2 66/54/2 65/55/2 50/56/2
f 16/19/3 18/48/3 40/57/3 39/58/3
f 53/59/2 59/60/2 58/61/2 54/62/2
f 24/63/3 31/64/3 30/65/3 21/66/3
f 17/67/11 32/68/11 31/69/11 24/70/11
f 16/71/12 29/72/12 32/73/12 17/74/12
f 33/75/1 34/76/1 35/77/1 36/78/1
f 27/79/11 34/80/11 33/81/11 14/82/11
f 26/83/12 35/84/12 34/85/12 27/86/12
f 13/87/10 36/88/10 35/89/10 26/90/10
f 14/91/3 33/92/3 36/93/3 13/94/3
f 19/47/3 17/20/3 41/95/3 42/96/3
f 14/11/3 20/52/3 44/97/3 43/98/3
f 18/48/3 22/99/3 45/100/3 40/57/3
f 13/12/3 26/101/3 37/102/3
f 21/103/3 16/19/3 39/58/3
f 25/104/3 15/50/3 38/105/3 47/106/3
f 23/107/3 19/47/3 42/96/3 46/108/3
f 27/109/3 14/11/3 43/98/3
f 17/20/3 24/110/3 41/95/3
f 15/50/3 13/12/3 37/102/3 38/105/3
f 20/52/3 28/111/3 48/112/3 44/97/3
f 45/113/13 67/114/13 66/54/13 49/53/13 40/115/13
f 40/116/12 49/117/12 50/118/12 39/119/12
f 52/120/14 71/121/14 70/122/14 46/123/14 42/124/14
f 23/125/5 69/126/5 68/127/5 22/128/5 18/129/5 19/130/5
f 41/131/12 51/132/12 52/133/12 42/134/12
f 54/62/13 58/61/13 57/135/13 47/136/13 38/137/13
f 55/138/4 61/139/4 60/140/4 56/141/4
f 37/142/3 53/143/3 54/144/3 38/145/3
f 48/146/14 62/147/14 61/139/14 55/138/14 44/148/14
f 51/149/4 72/150/4 71/121/4 52/120/4
f 44/151/3 55/152/3 56/153/3 43/154/3
f 57/155/12 58/156/12 59/157/12 60/158/12 61/159/12 62/160/12 63/161/12 64/162/12
f 25/163/5 64/164/5 63/165/5 28/166/5 20/167/5 15/168/5
f 56/169/1 60/170/1 59/171/1 53/172/1 37/173/1 26/174/1 27/175/1 43/176/1
f 28/111/3 63/177/3 62/178/3 48/112/3
f 47/106/3 57/179/3 64/180/3 25/104/3
f 65/181/3 66/182/3 67/183/3 68/184/3 69/185/3 70/186/3 71/187/3 72/188/3
f 22/99/3 68/189/3 67/190/3 45/100/3
f 46/108/3 70/191/3 69/192/3 23/107/3
f 72/193/1 51/194/1 41/195/1 24/196/1 21/197/1 39/198/1 50/199/1 65/200/1
